<?xml version="1.0" encoding="UTF-8"?>
<svg id="_图层_2" data-name="图层 2" xmlns="http://www.w3.org/2000/svg" xmlns:xlink="http://www.w3.org/1999/xlink" viewBox="0 0 1047.12 578.97">
  <defs>
    <style>
      .cls-1 {
        fill: none;
        stroke: #fff;
        stroke-width: .15px;
      }

      .cls-1, .cls-2 {
        stroke-miterlimit: 10;
      }

      .cls-3, .cls-4, .cls-5 {
        stroke-width: 0px;
      }

      .cls-3, .cls-2 {
        fill: #000;
      }

      .cls-4 {
        fill: #46b1e1;
      }

      .cls-2 {
        stroke: #000;
        stroke-width: 4px;
      }

      .cls-5 {
        fill: url(#_未命名的渐变_21);
      }
    </style>
    <linearGradient id="_未命名的渐变_21" data-name="未命名的渐变 21" x1="315.5" y1="-134.43" x2="693.17" y2="519.71" gradientUnits="userSpaceOnUse">
      <stop offset="0" stop-color="#21ff85"/>
      <stop offset=".26" stop-color="#17cea3"/>
      <stop offset=".77" stop-color="#0674db"/>
      <stop offset="1" stop-color="#0051f2"/>
    </linearGradient>
  </defs>
  <g id="_图层_1-2" data-name="图层 1">
    <g>
      <g>
        <path class="cls-5" d="M10.59,7.83h37.98c23.63,0,43.2,8.55,43.2,35.23s-19.71,36.96-42.62,36.96h-12.61v35.8H10.59V7.83ZM47.84,59.58c12.61,0,18.7-5.94,18.7-16.53s-6.96-14.64-19.42-14.64h-10.58v31.17h11.31Z"/>
        <path class="cls-5" d="M106.26,145.97l4.64-19.57c1.45.29,3.62,1.01,5.51,1.01,7.83,0,11.89-4.06,13.77-9.86l1.16-4.2-31.6-80.02h25.95l11.02,34.21c2.46,7.54,4.2,15.22,6.38,23.34h.72c1.59-7.83,3.48-15.51,5.36-23.34l9.57-34.21h24.64l-28.41,82.63c-7.97,21.16-16.96,31.6-36.53,31.6-5.36,0-8.7-.58-12.18-1.59Z"/>
        <path class="cls-5" d="M199.03,85.24v-31.75h-11.16v-19.13l12.76-1.01,2.9-21.89h21.31v21.89h19.42v20.15h-19.42v31.46c0,9.13,4.35,12.76,10.44,12.76,2.61,0,5.51-.87,7.54-1.59l4.06,18.7c-4.35,1.3-10.29,3.04-18.7,3.04-20.73,0-29.14-13.19-29.14-32.62Z"/>
        <path class="cls-5" d="M260.21,0h25.8v27.83l-1.3,14.64c5.94-5.51,14.06-11.16,25.22-11.16,17.98,0,25.66,12.9,25.66,33.49v51.03h-25.8v-47.84c0-11.45-3.04-14.64-9.57-14.64-5.8,0-9.28,2.61-14.21,7.39v55.08h-25.8V0Z"/>
        <path class="cls-5" d="M350.95,74.51c0-27.25,19.42-43.2,40.44-43.2s40.3,15.95,40.3,43.2-19.42,43.34-40.3,43.34-40.44-15.95-40.44-43.34ZM405.31,74.51c0-13.63-4.35-22.32-13.92-22.32s-14.06,8.7-14.06,22.32,4.35,22.47,14.06,22.47,13.92-8.7,13.92-22.47Z"/>
        <path class="cls-5" d="M447.93,33.34h21.02l1.88,10.29h.44c6.81-6.67,15.22-12.32,26.38-12.32,17.98,0,25.66,12.9,25.66,33.49v51.03h-25.8v-47.84c0-11.45-3.04-14.64-9.57-14.64-5.8,0-9.28,2.61-14.21,7.39v55.08h-25.8V33.34Z"/>
        <path class="cls-5" d="M5.66,235.32c0-35.37,20-55.37,49.43-55.37s49.43,20.15,49.43,55.37-20,56.53-49.43,56.53-49.43-21.16-49.43-56.53ZM78.14,235.32c0-20.87-8.84-33.2-23.05-33.2s-22.9,12.32-22.9,33.2,8.7,34.21,22.9,34.21,23.05-13.34,23.05-34.21Z"/>
        <path class="cls-5" d="M122.5,207.34h21.02l1.88,7.97h.44c6.52-5.8,14.64-10,23.19-10,19.71,0,32.18,16.53,32.18,41.89,0,28.41-16.96,44.65-34.65,44.65-6.96,0-13.63-3.04-19.13-8.55l.87,12.9v23.63h-25.8v-112.49ZM174.68,247.64c0-14.5-4.2-21.31-13.34-21.31-4.78,0-8.7,2.17-13.05,6.96v32.62c4.06,3.62,8.26,4.78,12.18,4.78,7.83,0,14.21-6.52,14.21-23.05Z"/>
        <path class="cls-5" d="M213.24,248.51c0-26.67,19.28-43.2,39.14-43.2,23.77,0,35.37,17.25,35.37,39.72,0,4.64-.58,9.13-1.16,11.16h-48.42c2.32,11.31,10.15,15.95,20.58,15.95,5.94,0,11.45-1.74,17.4-5.22l8.55,15.51c-8.55,6.09-19.86,9.42-29.43,9.42-23.77,0-42.04-15.95-42.04-43.34ZM265.86,239.23c0-8.12-3.62-14.21-13.05-14.21-7.1,0-13.34,4.49-15.08,14.21h28.12Z"/>
        <path class="cls-5" d="M304.27,207.34h21.02l1.88,10.29h.44c6.81-6.67,15.22-12.32,26.38-12.32,17.98,0,25.66,12.9,25.66,33.49v51.03h-25.8v-47.84c0-11.45-3.04-14.64-9.57-14.64-5.8,0-9.28,2.61-14.21,7.39v55.08h-25.8v-82.48Z"/>
        <path class="cls-5" d="M401.68,181.83h37.69c22.32,0,40.15,6.09,40.15,26.82,0,9.57-5.36,20-14.06,23.34v.58c10.87,2.9,19.13,11.02,19.13,25.37,0,22.03-18.7,31.89-42.18,31.89h-40.73v-107.99ZM438.36,224.74c11.02,0,15.95-4.78,15.95-12.18s-5.07-10.87-15.95-10.87h-10.73v23.05h10.73ZM440.53,269.96c12.47,0,18.84-4.49,18.84-13.77s-6.23-12.47-18.84-12.47h-12.9v26.24h12.9Z"/>
        <path class="cls-5" d="M502.43,181.83h27.98l17.11,46.68c2.17,6.23,3.91,13.05,5.94,19.57h.72c2.17-6.52,3.91-13.34,5.94-19.57l16.53-46.68h28.12v107.99h-23.63v-36.96c0-10.73,2.03-26.82,3.48-37.4h-.73l-8.99,25.8-14.5,39.43h-14.21l-14.64-39.43-8.7-25.8h-.58c1.3,10.58,3.33,26.67,3.33,37.4v36.96h-23.19v-107.99Z"/>
        <path class="cls-5" d="M624.63,236.48c0-35.95,24.06-56.53,51.46-56.53,14.06,0,25.37,6.52,32.76,14.06l-13.48,16.52c-5.51-4.93-11.16-8.41-18.84-8.41-13.92,0-25.37,12.47-25.37,33.49s9.86,33.92,25.08,33.92c8.7,0,15.51-4.35,20.58-9.86l13.63,16.24c-9.13,10.58-21.16,15.95-35.23,15.95-27.4,0-50.59-18.84-50.59-55.37Z"/>
        <path class="cls-5" d="M726.25,181.83h25.95v86.25h42.04v21.74h-67.99v-107.99Z"/>
        <path class="cls-5" d="M831.49,181.83h31.02l33.49,107.99h-27.25l-6.23-24.79h-31.89l-6.23,24.79h-26.38l33.49-107.99ZM857.58,245.03l-2.32-9.13c-2.9-10.73-5.65-23.63-8.55-34.65h-.58c-2.61,11.31-5.51,23.92-8.26,34.65l-2.32,9.13h22.03Z"/>
        <path class="cls-5" d="M907.3,181.83h37.98c23.63,0,43.2,8.55,43.2,35.23s-19.71,36.96-42.62,36.96h-12.61v35.8h-25.95v-107.99ZM944.56,233.58c12.61,0,18.7-5.94,18.7-16.53s-6.96-14.64-19.42-14.64h-10.58v31.17h11.31Z"/>
        <path class="cls-5" d="M1006.89,181.83h25.95v107.99h-25.95v-107.99Z"/>
      </g>
    </g>
    <g>
      <path class="cls-4" d="M61.07,416.01c-.58,1.68-1.24,3.29-1.9,4.89h17.75v9.06h-7.67c2.56,3.73,6.06,7.3,9.42,9.64-2.05,1.68-4.97,5.04-6.57,7.45h4.6v8.69h-23.81l-.95,3.58h22.28s-.15,2.41-.29,3.65c-.66,9.5-1.61,14.32-3.8,16.51-2.19,2.19-4.75,2.85-8.55,3-2.85.22-7.96.22-13.15,0-.22-2.78-1.83-6.5-3.87-9.06,5.33.44,11.32.51,13.88.51,1.61,0,2.7,0,3.65-.58.88-.66,1.46-2.41,1.83-5.48h-24.4c1.24-3.36,2.63-7.89,3.73-12.13h-6.35v-8.69h1.24c-.51-1.75-1.83-4.82-3-7.23v.88h-5.11v6.43h5.19v9.13h-5.19v7.96l7.38-1.97,1.39,8.98c-9.57,2.92-19.94,5.92-28.05,8.25l-2.41-9.93,2.56-.58v-23.89h7.96v21.99l2.12-.51v-25.86h-10.15v-25.27h24.32v21.11c2.7-1.83,5.19-4.09,7.38-6.57h-5.41v-9.06h11.69c1.24-2.34,2.26-4.75,3.14-7.3l9.13,2.41ZM19.21,431.86h7.08v-7.52h-7.08v7.52ZM64.65,439.53v4.89h-18.77v-3.51c-2.26,2.26-4.67,4.38-7.23,6.14h32.5c-2.26-1.97-4.46-4.6-6.5-7.52ZM54.42,429.96c-1.31,2.12-2.78,4.16-4.31,6.14h12.27c-1.24-1.97-2.34-4.09-3.29-6.14h-4.67Z"/>
      <path class="cls-4" d="M106.35,463.71c-4.24,5.48-10.81,11.47-16,15.05-2.19-2.04-6.65-5.48-9.28-7.08,5.41-2.78,11.18-7.52,14.46-11.83l10.81,3.87ZM133.52,439.09c5.41,5.19,11.18,12.12,14.1,16.95l-8.33,5.04c-1.02-1.9-2.48-4.09-4.24-6.5l-13.37,1.1v15.7c0,4.97-.95,7.67-4.67,9.28-3.58,1.53-7.96,1.68-13.37,1.68-.51-3.07-2.34-7.6-3.87-10.37,3.43.22,8.18.22,9.5.22,1.24-.07,1.61-.29,1.61-1.1v-14.46c-15.05,1.31-18.41,1.83-21.04,2.85-.44-1.83-1.97-6.65-2.99-9.28,3.14-.44,5.77-1.61,10.45-3.94,1.9-.88,5.19-2.48,9.06-4.75-9.57.66-11.98,1.1-13.73,1.75-.44-1.9-1.9-6.35-2.92-8.91,1.83-.29,3.43-1.24,5.7-2.7,1.31-.8,4.24-2.78,7.3-5.4-4.89.22-9.79.44-14.46.51-.22-2.63-1.46-6.87-2.56-9.28,18.12-.51,38.06-2.26,50.69-5.33l7.6,8.76c-7.89,1.9-16.95,3.21-26.37,4.16-3.14,2.92-6.72,5.77-10.37,8.33l12.64-.58c3.29-2.41,6.57-4.97,9.57-7.6l7.6,6.87c-7.6,6.06-16,11.4-24.62,15.78l16.36-1.1-3.21-3.51,7.96-4.16ZM132.87,459.47c5.41,3.51,12.64,8.91,16.22,12.93l-9.5,6.28c-3.07-3.87-10.01-9.64-15.48-13.59l8.77-5.62Z"/>
      <path class="cls-4" d="M153.39,435c1.68-.44,2.92-1.9,4.46-4.16,1.46-2.19,5.7-10.81,7.82-18.92l10.81,4.97c-2.34,5.92-5.92,12.42-9.71,17.82l3.29-.22c1.31-2.34,2.63-4.89,3.73-7.38l9.13,5.77c-3,5.55-6.79,11.25-10.81,16.43l8.18-1.68c-.29,2.92-.29,7.08,0,9.35-17.17,4.02-20.52,5.19-22.64,6.5-.51-2.04-2.19-7.01-3.43-9.71,2.12-.51,3.65-1.97,5.92-4.6.88-.95,2.34-2.78,4.02-5.19-4.31.51-5.92.95-7.01,1.53-.58-2.19-2.41-7.52-3.73-10.52ZM180.12,460.42l2.05,8.91c-8.33,3.87-17.46,7.82-24.83,10.88l-2.48-10.52c6.28-1.97,16.07-5.7,25.27-9.28ZM204.52,412.51c1.17,2.48,2.63,5.99,3.29,8.11l-4.67,1.24h19.72v9.42h-18.7c-2.26,3.07-4.75,6.36-7.01,9.28l11.18-1.02-2.7-4.02,8.11-4.09c3.87,5.11,8.47,12.05,10.3,16.8l-8.91,4.67c-.51-1.46-1.24-3.29-2.19-5.11-11.98,1.31-18.99,2.04-23.3,2.7h8.69c-.58,14.83-2.34,26-15.7,32.58-1.24-2.7-4.16-6.87-6.5-8.84,10.66-4.75,11.32-12.42,11.76-23.45-3.07.44-4.46.88-5.62,1.39-.44-2.56-2.04-7.89-2.99-10.15,1.75-.37,4.02-1.02,5.77-2.63,1.17-1.1,4.02-4.6,6.72-8.11h-10.52v-9.42h15.49c-.58-2.12-1.46-4.82-2.26-6.94l10.08-2.41ZM212.12,450.42v19.21c0,2.48.07,2.78.8,2.78h1.1c.95,0,1.17-1.75,1.39-11.39,2.05,1.75,6.28,3.43,8.91,4.16-.73,12.42-2.99,16.07-9.2,16.07h-4.31c-7.45,0-9.13-3.07-9.13-11.54v-19.28h10.45Z"/>
      <path class="cls-3" d="M227.89,464.88l9.28-7.96c5.11,4.24,12.42,11.76,15.63,15.85l-9.42,8.11c-4.31-5.26-10.44-11.54-15.48-16Z"/>
      <path class="cls-4" d="M342.64,450.49c-3-2.34-8.33-5.41-13.51-8.11-4.53,3.21-9.64,5.84-15.05,7.89-.95-1.9-2.78-4.67-4.53-6.79v8.91h-4.82v5.55l5.04-.66.51,9.13-5.55,1.02v14.46h-9.71v-12.78l-12.49,2.12-2.05-10.15c4.02-.44,9.06-1.1,14.54-1.83v-6.87h-5.19c-2.26,0-5.26.44-5.92,1.17-.51-1.83-2.04-6.43-3.14-8.91,1.68-.51,2.7-2.41,4.02-5.62.58-1.39,1.61-4.6,2.7-8.77h-5.84v-9.86h8.18c.51-2.48.95-5.11,1.24-7.6l10.08,1.83-1.24,5.77h10.3v9.86h-13.15l-.8,2.63h8.47v10.01h4.38l-1.46-1.61c9.5-2.92,18.26-8.55,23.81-15.41h-19.14v-9.57h25.86l1.9-.44,7.45,3.73c-2.48,6.21-6.06,11.54-10.45,16,4.67,2.26,9.28,4.67,12.05,6.57l-6.35,8.33h3.73v9.57h-11.47v10.96h14.61v9.79h-40.98v-9.79h15.7v-10.96h-12.27v-9.57h30.53ZM292.53,442.89h2.48v-6.57l-2.48,6.57Z"/>
      <path class="cls-4" d="M422.18,435.08v7.38h-67.13v-7.38h67.13ZM383.32,472.91v-1.75h-21.4v-6.57h21.4v-1.53h-20.23v-18.99h50.91v18.99h-20.38v1.53h21.62v6.57h-21.62v1.75h28.56v7.6h-67.13v-7.6h28.27ZM412.39,415.06v18.26h-47.99v-18.26h47.99ZM373.02,451.07h10.3v-1.68h-10.3v1.68ZM373.02,457.72h10.3v-1.68h-10.3v1.68ZM374.63,421.78h27.03v-1.61h-27.03v1.61ZM374.63,428.21h27.03v-1.61h-27.03v1.61ZM393.62,451.07h9.93v-1.68h-9.93v1.68ZM393.62,457.72h9.93v-1.68h-9.93v1.68Z"/>
      <path class="cls-3" d="M477.47,415.5c-.8,2.85-1.75,5.7-2.78,8.55h19.94s0,3.36-.07,4.6c-.88,32.5-1.61,44.34-4.67,48.35-2.26,3.21-4.53,4.09-7.74,4.67-2.92.51-7.45.44-11.83.29-.15-2.85-1.61-7.38-3.51-10.3,4.67.44,9.06.44,11.03.44,1.46,0,2.26-.29,3.21-1.31,2.12-2.26,3-13,3.58-37.11h-13.88c-1.97,4.16-4.09,7.89-6.21,10.88-1.31-1.24-3.8-3-5.99-4.53v34.77h-19.14v5.19h-9.57v-55.22h8.33c.73-3.73,1.39-8.33,1.61-11.91l11.61,1.61c-1.24,3.58-2.48,7.23-3.65,10.3h10.81v9.71c3.65-5.92,6.79-13.81,8.69-21.4l10.23,2.41ZM439.42,443.84h9.57v-9.86h-9.57v9.86ZM448.99,465.54v-12.56h-9.57v12.56h9.57ZM471.85,441.65c3.29,4.97,8.03,11.91,10.23,16.22l-8.98,5.48c-1.9-4.46-6.28-11.61-9.57-17.02l8.33-4.67Z"/>
      <path class="cls-3" d="M10.37,535.51c0-17.82,10.08-27.9,24.91-27.9s24.91,10.15,24.91,27.9-10.08,28.49-24.91,28.49-24.91-10.66-24.91-28.49ZM46.9,535.51c0-10.52-4.46-16.73-11.61-16.73s-11.54,6.21-11.54,16.73,4.38,17.24,11.54,17.24,11.61-6.72,11.61-17.24Z"/>
      <path class="cls-3" d="M69.25,521.41h10.59l.95,4.02h.22c3.29-2.92,7.38-5.04,11.69-5.04,9.93,0,16.22,8.33,16.22,21.11,0,14.32-8.55,22.5-17.46,22.5-3.51,0-6.87-1.53-9.64-4.31l.44,6.5v11.91h-13v-56.68ZM95.54,541.72c0-7.3-2.12-10.74-6.72-10.74-2.41,0-4.38,1.1-6.57,3.51v16.44c2.05,1.83,4.16,2.41,6.14,2.41,3.94,0,7.16-3.29,7.16-11.61Z"/>
      <path class="cls-3" d="M114.97,542.16c0-13.44,9.71-21.77,19.72-21.77,11.98,0,17.82,8.69,17.82,20.01,0,2.34-.29,4.6-.58,5.62h-24.4c1.17,5.7,5.11,8.04,10.37,8.04,3,0,5.77-.88,8.77-2.63l4.31,7.82c-4.31,3.07-10.01,4.75-14.83,4.75-11.98,0-21.18-8.03-21.18-21.84ZM141.48,537.48c0-4.09-1.83-7.16-6.57-7.16-3.58,0-6.72,2.26-7.6,7.16h14.17Z"/>
      <path class="cls-3" d="M160.84,521.41h10.59l.95,5.19h.22c3.43-3.36,7.67-6.21,13.29-6.21,9.06,0,12.93,6.5,12.93,16.87v25.71h-13v-24.1c0-5.77-1.53-7.38-4.82-7.38-2.92,0-4.67,1.31-7.16,3.72v27.76h-13v-41.56Z"/>
      <path class="cls-3" d="M209.92,508.56h18.99c11.25,0,20.23,3.07,20.23,13.51,0,4.82-2.7,10.08-7.09,11.76v.29c5.48,1.46,9.64,5.55,9.64,12.78,0,11.1-9.42,16.07-21.26,16.07h-20.53v-54.42ZM228.4,530.18c5.55,0,8.04-2.41,8.04-6.14s-2.56-5.48-8.04-5.48h-5.41v11.61h5.41ZM229.5,552.97c6.28,0,9.5-2.26,9.5-6.94s-3.14-6.28-9.5-6.28h-6.5v13.22h6.5Z"/>
      <path class="cls-3" d="M260.68,508.56h14.1l8.62,23.52c1.1,3.14,1.97,6.57,2.99,9.86h.37c1.1-3.29,1.97-6.72,2.99-9.86l8.33-23.52h14.17v54.42h-11.91v-18.63c0-5.41,1.02-13.51,1.75-18.85h-.37l-4.53,13-7.3,19.87h-7.16l-7.38-19.87-4.38-13h-.29c.66,5.33,1.68,13.44,1.68,18.85v18.63h-11.69v-54.42Z"/>
      <path class="cls-3" d="M322.26,536.09c0-18.12,12.12-28.49,25.93-28.49,7.08,0,12.78,3.29,16.51,7.08l-6.79,8.33c-2.78-2.48-5.62-4.24-9.5-4.24-7.01,0-12.78,6.28-12.78,16.87s4.97,17.09,12.64,17.09c4.38,0,7.82-2.19,10.37-4.97l6.87,8.18c-4.6,5.33-10.66,8.03-17.75,8.03-13.81,0-25.49-9.5-25.49-27.9Z"/>
      <path class="cls-3" d="M373.46,508.56h13.07v43.46h21.18v10.96h-34.26v-54.42Z"/>
      <path class="cls-3" d="M426.49,508.56h15.63l16.87,54.42h-13.73l-3.14-12.49h-16.07l-3.14,12.49h-13.29l16.87-54.42ZM439.63,540.4l-1.17-4.6c-1.46-5.41-2.85-11.91-4.31-17.46h-.29c-1.31,5.7-2.78,12.05-4.16,17.46l-1.17,4.6h11.1Z"/>
      <path class="cls-3" d="M464.69,508.56h19.14c11.91,0,21.77,4.31,21.77,17.75s-9.93,18.63-21.48,18.63h-6.35v18.04h-13.07v-54.42ZM483.46,534.63c6.35,0,9.42-3,9.42-8.33s-3.51-7.38-9.79-7.38h-5.33v15.71h5.7Z"/>
      <path class="cls-3" d="M514.86,508.56h13.07v54.42h-13.07v-54.42Z"/>
      <path class="cls-3" d="M557.15,508.56h19.14c11.91,0,21.77,4.31,21.77,17.75s-9.93,18.63-21.48,18.63h-6.35v18.04h-13.07v-54.42ZM575.93,534.63c6.36,0,9.42-3,9.42-8.33s-3.51-7.38-9.79-7.38h-5.33v15.71h5.7Z"/>
      <path class="cls-3" d="M605.36,578.17l2.34-9.86c.73.15,1.83.51,2.78.51,3.94,0,5.99-2.05,6.94-4.97l.58-2.12-15.92-40.32h13.08l5.55,17.24c1.24,3.8,2.12,7.67,3.21,11.76h.37c.8-3.94,1.75-7.82,2.7-11.76l4.82-17.24h12.42l-14.32,41.63c-4.02,10.66-8.55,15.92-18.41,15.92-2.7,0-4.38-.29-6.14-.8Z"/>
      <path class="cls-3" d="M652.11,547.56v-16h-5.62v-9.64l6.43-.51,1.46-11.03h10.74v11.03h9.79v10.15h-9.79v15.85c0,4.6,2.19,6.43,5.26,6.43,1.31,0,2.78-.44,3.8-.8l2.05,9.42c-2.19.66-5.19,1.53-9.42,1.53-10.45,0-14.68-6.65-14.68-16.43Z"/>
      <path class="cls-3" d="M682.93,504.61h13v14.02l-.66,7.38c3-2.78,7.08-5.62,12.71-5.62,9.06,0,12.93,6.5,12.93,16.87v25.71h-13v-24.1c0-5.77-1.53-7.38-4.82-7.38-2.92,0-4.67,1.31-7.16,3.72v27.76h-13v-58.36Z"/>
      <path class="cls-3" d="M728.65,542.16c0-13.73,9.79-21.77,20.38-21.77s20.31,8.04,20.31,21.77-9.79,21.84-20.31,21.84-20.38-8.03-20.38-21.84ZM756.04,542.16c0-6.87-2.19-11.25-7.01-11.25s-7.08,4.38-7.08,11.25,2.19,11.32,7.08,11.32,7.01-4.38,7.01-11.32Z"/>
      <path class="cls-3" d="M777.51,521.41h10.59l.95,5.19h.22c3.43-3.36,7.67-6.21,13.29-6.21,9.06,0,12.93,6.5,12.93,16.87v25.71h-13v-24.1c0-5.77-1.53-7.38-4.82-7.38-2.92,0-4.67,1.31-7.16,3.72v27.76h-13v-41.56Z"/>
      <path class="cls-3" d="M902.27,500.74l5.77,9.35c-7.96,1.68-17.46,2.63-26.37,3.14v6.79h17.17l1.68-.29,6.36,1.53c-1.24,13-3.94,23.37-8.33,31.55,2.85,3.65,6.14,6.72,9.86,8.98-2.26,1.9-5.48,5.77-7.09,8.47-3.29-2.41-6.21-5.33-8.69-8.69-3.07,3.43-6.57,6.28-10.59,8.69-1.02-1.97-2.85-4.67-4.53-6.79-.95,2.7-2.04,5.19-3.36,7.45-1.68-1.61-5.11-4.16-7.6-5.55v4.24h-9.57v-24.98h-4.75c-.66,9.5-2.34,19.06-6.36,25.71-1.61-1.97-5.19-5.26-7.38-6.65,4.02-8.55,4.46-23.08,4.46-33.16v-27.83h9.71v16.58h3.36v-18.7h9.5v18.7h4.31v9.28h-17.17v1.97l-.07,4.82h13.95v27.98c4.53-9.79,5.04-24.83,5.04-34.55v-24.25c10.74-.58,22.35-1.9,30.68-3.8ZM881.53,537.7c-.37,7.23-1.1,15.19-2.99,22.35,3.21-2.04,5.99-4.75,8.4-7.96-2.19-4.38-3.94-9.28-5.41-14.39ZM887.73,529.59c1.17,4.46,2.7,8.84,4.53,12.86,1.61-3.94,2.85-8.25,3.65-12.86h-8.18Z"/>
      <path class="cls-3" d="M952.23,500.52v13.51h27.03v10.81h-16.29c4.24,9.79,10.66,19.06,18.41,24.76-2.7,2.19-6.57,6.43-8.47,9.42-2.34-2.04-4.53-4.31-6.57-6.87v6.14h-14.1v11.61h-11.32v-11.61h-14.39v-6.5c-2.26,2.85-4.75,5.41-7.45,7.6-1.83-2.63-5.33-6.57-7.82-8.62,7.89-5.77,14.54-15.56,18.7-25.93h-15.85v-10.81h26.81v-13.51h11.32ZM940.83,524.84c-2.85,8.33-6.57,16.07-11.1,22.64h11.18v-22.64h-.07ZM962.97,547.49c-4.38-6.5-7.89-14.17-10.74-22.28v22.28h10.74Z"/>
    </g>
    <line class="cls-2" x1="1047.12" y1="359.15" y2="359.15"/>
  </g>
</svg>