<svg width="1177" height="400" xmlns="http://www.w3.org/2000/svg" xmlns:xlink="http://www.w3.org/1999/xlink">
<defs>
  <style>

    .cls-5 {
    fill: url(#c);
    }
  </style>
  <linearGradient  x1="315.5" y1="-134.43" x2="693.17" y2="519.71" data-name="c" id="c" gradientUnits="userSpaceOnUse">
   <stop stop-color="#21ff85" offset="0"/>
   <stop stop-color="#17cea3" offset=".26"/>
   <stop stop-color="#0674db" offset=".77"/>
   <stop stop-color="#0051f2" offset="1"/>
  </linearGradient>
 </defs>
 <g>
  <g >
   <g >
    <g >
     <path d="m79.83997,47.91499l37.98,0c23.63,0 43.2,8.55 43.2,35.23s-19.71,36.96 -42.62,36.96l-12.61,0l0,35.8l-25.95,0l0,-107.99zm37.25,51.75c12.61,0 18.7,-5.94 18.7,-16.53s-6.96,-14.64 -19.42,-14.64l-10.58,0l0,31.17l11.31,0l-0.01,0z" class="cls-5"/>
     <path  d="m175.50997,186.05499l4.64,-19.57c1.45,0.29 3.62,1.01 5.51,1.01c7.83,0 11.89,-4.06 13.77,-9.86l1.16,-4.2l-31.6,-80.02l25.95,0l11.02,34.21c2.46,7.54 4.2,15.22 6.38,23.34l0.72,0c1.59,-7.83 3.48,-15.51 5.36,-23.34l9.57,-34.21l24.64,0l-28.41,82.63c-7.97,21.16 -16.96,31.6 -36.53,31.6c-5.36,0 -8.7,-0.58 -12.18,-1.59z" class="cls-5"/>
     <path   d="m268.27997,125.32499l0,-31.75l-11.16,0l0,-19.13l12.76,-1.01l2.9,-21.89l21.31,0l0,21.89l19.42,0l0,20.15l-19.42,0l0,31.46c0,9.13 4.35,12.76 10.44,12.76c2.61,0 5.51,-0.87 7.54,-1.59l4.06,18.7c-4.35,1.3 -10.29,3.04 -18.7,3.04c-20.73,0 -29.14,-13.19 -29.14,-32.62l-0.01,-0.01z" class="cls-5"/>
     <path   d="m329.45997,40.08499l25.8,0l0,27.83l-1.3,14.64c5.94,-5.51 14.06,-11.16 25.22,-11.16c17.98,0 25.66,12.9 25.66,33.49l0,51.03l-25.8,0l0,-47.84c0,-11.45 -3.04,-14.64 -9.57,-14.64c-5.8,0 -9.28,2.61 -14.21,7.39l0,55.08l-25.8,0l0,-115.82z" class="cls-5"/>
     <path   d="m420.19997,114.59499c0,-27.25 19.42,-43.2 40.44,-43.2s40.3,15.95 40.3,43.2s-19.42,43.34 -40.3,43.34s-40.44,-15.95 -40.44,-43.34zm54.36,0c0,-13.63 -4.35,-22.32 -13.92,-22.32s-14.06,8.7 -14.06,22.32s4.35,22.47 14.06,22.47s13.92,-8.7 13.92,-22.47z" class="cls-5"/>
     <path   d="m517.17997,73.42499l21.02,0l1.88,10.29l0.44,0c6.81,-6.67 15.22,-12.32 26.38,-12.32c17.98,0 25.66,12.9 25.66,33.49l0,51.03l-25.8,0l0,-47.84c0,-11.45 -3.04,-14.64 -9.57,-14.64c-5.8,0 -9.28,2.61 -14.21,7.39l0,55.08l-25.8,0l0,-82.48z" class="cls-5"/>
     <path   d="m74.90997,275.40499c0,-35.37 20,-55.37 49.43,-55.37s49.43,20.15 49.43,55.37s-20,56.53 -49.43,56.53s-49.43,-21.16 -49.43,-56.53zm72.48,0c0,-20.87 -8.84,-33.2 -23.05,-33.2s-22.9,12.32 -22.9,33.2s8.7,34.21 22.9,34.21s23.05,-13.34 23.05,-34.21z" class="cls-5"/>
     <path   d="m191.74997,247.42499l21.02,0l1.88,7.97l0.44,0c6.52,-5.8 14.64,-10 23.19,-10c19.71,0 32.18,16.53 32.18,41.89c0,28.41 -16.96,44.65 -34.65,44.65c-6.96,0 -13.63,-3.04 -19.13,-8.55l0.87,12.9l0,23.63l-25.8,0l0,-112.49zm52.18,40.3c0,-14.5 -4.2,-21.31 -13.34,-21.31c-4.78,0 -8.7,2.17 -13.05,6.96l0,32.62c4.06,3.62 8.26,4.78 12.18,4.78c7.83,0 14.21,-6.52 14.21,-23.05z" class="cls-5"/>
     <path   d="m282.48997,288.59499c0,-26.67 19.28,-43.2 39.14,-43.2c23.77,0 35.37,17.25 35.37,39.72c0,4.64 -0.58,9.13 -1.16,11.16l-48.42,0c2.32,11.31 10.15,15.95 20.58,15.95c5.94,0 11.45,-1.74 17.4,-5.22l8.55,15.51c-8.55,6.09 -19.86,9.42 -29.43,9.42c-23.77,0 -42.04,-15.95 -42.04,-43.34l0.01,0zm52.62,-9.28c0,-8.12 -3.62,-14.21 -13.05,-14.21c-7.1,0 -13.34,4.49 -15.08,14.21l28.12,0l0.01,0z" class="cls-5"/>
     <path   d="m373.51997,247.42499l21.02,0l1.88,10.29l0.44,0c6.81,-6.67 15.22,-12.32 26.38,-12.32c17.98,0 25.66,12.9 25.66,33.49l0,51.03l-25.8,0l0,-47.84c0,-11.45 -3.04,-14.64 -9.57,-14.64c-5.8,0 -9.28,2.61 -14.21,7.39l0,55.08l-25.8,0l0,-82.48z" class="cls-5"/>
     <path   d="m470.92997,221.91499l37.69,0c22.32,0 40.15,6.09 40.15,26.82c0,9.57 -5.36,20 -14.06,23.34l0,0.58c10.87,2.9 19.13,11.02 19.13,25.37c0,22.03 -18.7,31.89 -42.18,31.89l-40.73,0l0,-107.99l0,-0.01zm36.68,42.91c11.02,0 15.95,-4.78 15.95,-12.18s-5.07,-10.87 -15.95,-10.87l-10.73,0l0,23.05l10.73,0zm2.17,45.22c12.47,0 18.84,-4.49 18.84,-13.77s-6.23,-12.47 -18.84,-12.47l-12.9,0l0,26.24l12.9,0z" class="cls-5"/>
     <path   d="m571.67997,221.91499l27.98,0l17.11,46.68c2.17,6.23 3.91,13.05 5.94,19.57l0.72,0c2.17,-6.52 3.91,-13.34 5.94,-19.57l16.53,-46.68l28.12,0l0,107.99l-23.63,0l0,-36.96c0,-10.73 2.03,-26.82 3.48,-37.4l-0.73,0l-8.99,25.8l-14.5,39.43l-14.21,0l-14.64,-39.43l-8.7,-25.8l-0.58,0c1.3,10.58 3.33,26.67 3.33,37.4l0,36.96l-23.19,0l0,-107.99l0.02,0z" class="cls-5"/>
     <path   d="m693.87997,276.56499c0,-35.95 24.06,-56.53 51.46,-56.53c14.06,0 25.37,6.52 32.76,14.06l-13.48,16.52c-5.51,-4.93 -11.16,-8.41 -18.84,-8.41c-13.92,0 -25.37,12.47 -25.37,33.49s9.86,33.92 25.08,33.92c8.7,0 15.51,-4.35 20.58,-9.86l13.63,16.24c-9.13,10.58 -21.16,15.95 -35.23,15.95c-27.4,0 -50.59,-18.84 -50.59,-55.37l0,-0.01z" class="cls-5"/>
     <path   d="m795.49997,221.91499l25.95,0l0,86.25l42.04,0l0,21.74l-67.99,0l0,-107.99z" class="cls-5"/>
     <path   d="m900.73997,221.91499l31.02,0l33.49,107.99l-27.25,0l-6.23,-24.79l-31.89,0l-6.23,24.79l-26.38,0l33.49,-107.99l-0.02,0zm26.09,63.2l-2.32,-9.13c-2.9,-10.73 -5.65,-23.63 -8.55,-34.65l-0.58,0c-2.61,11.31 -5.51,23.92 -8.26,34.65l-2.32,9.13l22.03,0z" class="cls-5"/>
     <path   d="m976.54997,221.91499l37.98,0c23.63,0 43.2,8.55 43.2,35.23s-19.71,36.96 -42.62,36.96l-12.61,0l0,35.8l-25.95,0l0,-107.99zm37.26,51.75c12.61,0 18.7,-5.94 18.7,-16.53s-6.96,-14.64 -19.42,-14.64l-10.58,0l0,31.17l11.31,0l-0.01,0z" class="cls-5"/>
     <path   d="m1076.13997,221.91499l25.95,0l0,107.99l-25.95,0l0,-107.99z" class="cls-5"/>
    </g>
   </g>
  </g>
 </g>
</svg>